<mxfile host="drawio-plugin" modified="2021-05-11T15:12:41.596Z" agent="5.0 (Windows NT 6.2; Win64; x64) AppleWebKit/537.36 (KHTML, like Gecko) Chrome/87.0.4280.141 Safari/537.36" version="13.7.9" etag="Sl8t5UnRsWlShEv5Cl6M" type="embed"><diagram id="09vOIy2DptwVw3P1UL1k" name="Page-1"><mxGraphModel dx="1050" dy="398" grid="1" gridSize="10" guides="1" tooltips="1" connect="1" arrows="1" fold="1" page="1" pageScale="1" pageWidth="850" pageHeight="1100" background="#ffffff" math="0" shadow="0"><root><mxCell id="0"/><mxCell id="1" parent="0"/><mxCell id="2" value="WordsCollection" style="swimlane;fontStyle=1;align=center;verticalAlign=top;childLayout=stackLayout;horizontal=1;startSize=26;horizontalStack=0;resizeParent=1;resizeParentMax=0;resizeLast=0;collapsible=1;marginBottom=0;fontColor=#000000;strokeColor=#0000CC;strokeWidth=2;fillColor=#FFFFFF;" vertex="1" parent="1"><mxGeometry x="420" y="120" width="280" height="164" as="geometry"/></mxCell><mxCell id="13" value="# _collection: list[Any]" style="text;align=left;verticalAlign=top;spacingLeft=4;spacingRight=4;overflow=hidden;rotatable=0;points=[[0,0.5],[1,0.5]];portConstraint=eastwest;fontColor=#000000;strokeColor=#0000CC;strokeWidth=2;fillColor=#FFFFFF;" vertex="1" parent="2"><mxGeometry y="26" width="280" height="26" as="geometry"/></mxCell><mxCell id="4" value="" style="line;strokeWidth=2;align=left;verticalAlign=middle;spacingTop=-1;spacingLeft=3;spacingRight=3;rotatable=0;labelPosition=right;points=[];portConstraint=eastwest;fontColor=#000000;strokeColor=#0000CC;fillColor=#FFFFFF;" vertex="1" parent="2"><mxGeometry y="52" width="280" height="8" as="geometry"/></mxCell><mxCell id="14" value="+ init(collection)" style="text;align=left;verticalAlign=top;spacingLeft=4;spacingRight=4;overflow=hidden;rotatable=0;points=[[0,0.5],[1,0.5]];portConstraint=eastwest;fontColor=#000000;strokeColor=#0000CC;strokeWidth=2;fillColor=#FFFFFF;" vertex="1" parent="2"><mxGeometry y="60" width="280" height="26" as="geometry"/></mxCell><mxCell id="15" value="+ __iter__(): AlphabeticalOrderIterator" style="text;align=left;verticalAlign=top;spacingLeft=4;spacingRight=4;overflow=hidden;rotatable=0;points=[[0,0.5],[1,0.5]];portConstraint=eastwest;fontColor=#000000;strokeColor=#0000CC;strokeWidth=2;fillColor=#FFFFFF;" vertex="1" parent="2"><mxGeometry y="86" width="280" height="26" as="geometry"/></mxCell><mxCell id="16" value="+ get_reverse_iterator(): AlphabeticalOrderIterator" style="text;align=left;verticalAlign=top;spacingLeft=4;spacingRight=4;overflow=hidden;rotatable=0;points=[[0,0.5],[1,0.5]];portConstraint=eastwest;fontColor=#000000;strokeColor=#0000CC;strokeWidth=2;fillColor=#FFFFFF;" vertex="1" parent="2"><mxGeometry y="112" width="280" height="26" as="geometry"/></mxCell><mxCell id="17" value="+ add(item: Any)" style="text;align=left;verticalAlign=top;spacingLeft=4;spacingRight=4;overflow=hidden;rotatable=0;points=[[0,0.5],[1,0.5]];portConstraint=eastwest;fontColor=#000000;strokeColor=#0000CC;strokeWidth=2;fillColor=#FFFFFF;" vertex="1" parent="2"><mxGeometry y="138" width="280" height="26" as="geometry"/></mxCell><mxCell id="6" value="AlphabeticalOrderIterator" style="swimlane;fontStyle=1;align=center;verticalAlign=top;childLayout=stackLayout;horizontal=1;startSize=26;horizontalStack=0;resizeParent=1;resizeParentMax=0;resizeLast=0;collapsible=1;marginBottom=0;fontColor=#000000;strokeColor=#0000CC;strokeWidth=2;fillColor=#FFFFFF;" vertex="1" parent="1"><mxGeometry x="120" y="120" width="180" height="164" as="geometry"/></mxCell><mxCell id="7" value="# _collection: WordsCollection" style="text;align=left;verticalAlign=top;spacingLeft=4;spacingRight=4;overflow=hidden;rotatable=0;points=[[0,0.5],[1,0.5]];portConstraint=eastwest;fontColor=#000000;strokeColor=#0000CC;strokeWidth=2;fillColor=#FFFFFF;" vertex="1" parent="6"><mxGeometry y="26" width="180" height="26" as="geometry"/></mxCell><mxCell id="11" value="# _reverse: bool" style="text;align=left;verticalAlign=top;spacingLeft=4;spacingRight=4;overflow=hidden;rotatable=0;points=[[0,0.5],[1,0.5]];portConstraint=eastwest;fontColor=#000000;strokeColor=#0000CC;strokeWidth=2;fillColor=#FFFFFF;" vertex="1" parent="6"><mxGeometry y="52" width="180" height="26" as="geometry"/></mxCell><mxCell id="10" value="# _position: int" style="text;align=left;verticalAlign=top;spacingLeft=4;spacingRight=4;overflow=hidden;rotatable=0;points=[[0,0.5],[1,0.5]];portConstraint=eastwest;fontColor=#000000;strokeColor=#0000CC;strokeWidth=2;fillColor=#FFFFFF;" vertex="1" parent="6"><mxGeometry y="78" width="180" height="26" as="geometry"/></mxCell><mxCell id="8" value="" style="line;strokeWidth=2;align=left;verticalAlign=middle;spacingTop=-1;spacingLeft=3;spacingRight=3;rotatable=0;labelPosition=right;points=[];portConstraint=eastwest;fontColor=#000000;strokeColor=#0000CC;fillColor=#FFFFFF;" vertex="1" parent="6"><mxGeometry y="104" width="180" height="8" as="geometry"/></mxCell><mxCell id="9" value="+ init(collection, reverse)" style="text;align=left;verticalAlign=top;spacingLeft=4;spacingRight=4;overflow=hidden;rotatable=0;points=[[0,0.5],[1,0.5]];portConstraint=eastwest;fontColor=#000000;strokeColor=#0000CC;strokeWidth=2;fillColor=#FFFFFF;" vertex="1" parent="6"><mxGeometry y="112" width="180" height="26" as="geometry"/></mxCell><mxCell id="12" value="+ __next__()" style="text;align=left;verticalAlign=top;spacingLeft=4;spacingRight=4;overflow=hidden;rotatable=0;points=[[0,0.5],[1,0.5]];portConstraint=eastwest;fontColor=#000000;strokeColor=#0000CC;strokeWidth=2;fillColor=#FFFFFF;" vertex="1" parent="6"><mxGeometry y="138" width="180" height="26" as="geometry"/></mxCell><mxCell id="18" value="" style="endArrow=block;endFill=1;html=1;edgeStyle=orthogonalEdgeStyle;align=left;verticalAlign=top;strokeWidth=2;strokeColor=#0000CC;fontSize=17;fontColor=#000000;labelBackgroundColor=none;entryX=0;entryY=0.25;entryDx=0;entryDy=0;exitX=1;exitY=0.25;exitDx=0;exitDy=0;" edge="1" parent="1" source="6" target="2"><mxGeometry y="-69" relative="1" as="geometry"><mxPoint x="340" y="210" as="sourcePoint"/><mxPoint x="500" y="210" as="targetPoint"/><mxPoint as="offset"/></mxGeometry></mxCell><mxCell id="19" value="&lt;font style=&quot;font-size: 17px&quot; color=&quot;#000000&quot;&gt;0..n&lt;/font&gt;" style="edgeLabel;resizable=0;html=1;align=left;verticalAlign=bottom;labelBackgroundColor=none;" connectable="0" vertex="1" parent="18"><mxGeometry x="-1" relative="1" as="geometry"/></mxCell><mxCell id="20" value="1" style="text;html=1;align=center;verticalAlign=middle;resizable=0;points=[];autosize=1;fontSize=17;fontColor=#000000;" vertex="1" parent="1"><mxGeometry x="400" y="130" width="20" height="30" as="geometry"/></mxCell><mxCell id="21" value="return" style="html=1;verticalAlign=bottom;endArrow=open;dashed=1;endSize=8;labelBackgroundColor=none;strokeColor=#0000CC;strokeWidth=2;fontSize=17;fontColor=#000000;entryX=0.75;entryY=0;entryDx=0;entryDy=0;exitX=0;exitY=0.5;exitDx=0;exitDy=0;" edge="1" parent="1" source="15" target="6"><mxGeometry x="-0.0714" y="-30" relative="1" as="geometry"><mxPoint x="460" y="200" as="sourcePoint"/><mxPoint x="380" y="200" as="targetPoint"/><Array as="points"><mxPoint x="350" y="219"/><mxPoint x="350" y="70"/><mxPoint x="255" y="70"/></Array><mxPoint as="offset"/></mxGeometry></mxCell><mxCell id="22" value="return" style="html=1;verticalAlign=bottom;endArrow=open;dashed=1;endSize=8;labelBackgroundColor=none;strokeColor=#0000CC;strokeWidth=2;fontSize=17;fontColor=#000000;exitX=0;exitY=0.75;exitDx=0;exitDy=0;entryX=0.861;entryY=-0.006;entryDx=0;entryDy=0;entryPerimeter=0;" edge="1" parent="1" source="2" target="6"><mxGeometry x="-0.633" y="27" relative="1" as="geometry"><mxPoint x="460" y="200" as="sourcePoint"/><mxPoint x="380" y="200" as="targetPoint"/><Array as="points"><mxPoint x="340" y="243"/><mxPoint x="340" y="90"/><mxPoint x="275" y="90"/></Array><mxPoint as="offset"/></mxGeometry></mxCell></root></mxGraphModel></diagram></mxfile>